<?xml version="1.0" encoding="UTF-8" standalone="no"?>
<svg
   xmlns:dc="http://purl.org/dc/elements/1.1/"
   xmlns:cc="http://creativecommons.org/ns#"
   xmlns:rdf="http://www.w3.org/1999/02/22-rdf-syntax-ns#"
   xmlns:svg="http://www.w3.org/2000/svg"
   xmlns="http://www.w3.org/2000/svg"
   xmlns:sodipodi="http://sodipodi.sourceforge.net/DTD/sodipodi-0.dtd"
   xmlns:inkscape="http://www.inkscape.org/namespaces/inkscape"
   version="1.1"
   id="svg10"
   width="546.1333"
   height="546.1333"
   viewBox="0 0 546.1333 546.1333"
   sodipodi:docname="dna.svg"
   inkscape:version="1.0.1 (3bc2e813f5, 2020-09-07)">
  <metadata
     id="metadata16">
    <rdf:RDF>
      <cc:Work
         rdf:about="">
        <dc:format>image/svg+xml</dc:format>
        <dc:type
           rdf:resource="http://purl.org/dc/dcmitype/StillImage" />
        <dc:title></dc:title>
      </cc:Work>
    </rdf:RDF>
  </metadata>
  <defs
     id="defs14" />
  <sodipodi:namedview
     pagecolor="#ffffff"
     bordercolor="#666666"
     borderopacity="1"
     objecttolerance="10"
     gridtolerance="10"
     guidetolerance="10"
     inkscape:pageopacity="0"
     inkscape:pageshadow="2"
     inkscape:window-width="1898"
     inkscape:window-height="1020"
     id="namedview12"
     showgrid="false"
     inkscape:zoom="1.435547"
     inkscape:cx="273.06665"
     inkscape:cy="273.06665"
     inkscape:window-x="0"
     inkscape:window-y="0"
     inkscape:window-maximized="0"
     inkscape:current-layer="g18" />
  <g
     inkscape:groupmode="layer"
     inkscape:label="Image"
     id="g18">
    <path
       style="fill:#000000;stroke-width:1.06667"
       d="m 120.85986,528.69539 v -17.43791 l 10.93333,-0.68933 c 9.72536,-0.61318 26.97878,-3.88152 29.8465,-5.65387 0.58644,-0.36244 -19.37721,-21.11643 -44.36367,-46.11998 l -45.429932,-45.461 1.478304,-6.93333 c 2.222743,-10.4248 8.104549,-25.98708 10.867533,-28.75366 0.267493,-0.26784 25.576685,24.59993 56.242635,55.26171 l 55.75628,55.7487 6.33451,-4.70289 c 3.48398,-2.58658 9.4545,-7.6221 13.26784,-11.19004 l 6.93333,-6.48717 -58.13333,-58.22374 -58.13333,-58.22374 3.67619,-2.91459 c 5.8415,-4.63128 15.95841,-10.62673 22.22109,-13.16858 l 5.76672,-2.34053 51.90537,51.89726 c 28.54796,28.54349 52.21876,51.89726 52.60179,51.89726 1.25604,0 7.4751,-16.20481 10.00552,-26.07106 l 2.47811,-9.66227 -36.98835,-37.06666 -36.98835,-37.06667 h 24.51278 24.51279 l 13.63117,13.6 13.63118,13.6 -0.28301,-30.93333 -0.28301,-30.93333 -49.06666,0.0415 c -42.07465,0.0356 -50.51067,0.30799 -59.2,1.91143 -56.806818,10.48245 -100.399937,54.4355 -110.337557,111.24857 -0.91059,5.20582 -1.65716,12.46513 -1.65903,16.13179 l -0.003,6.66671 H 18.993593 1.3935933 l 0.0275,-2.93333 c 0.0605,-6.45235 2.1184,-23.88421 3.75485,-31.80678 C 17.281793,333.31839 60.206123,284.52412 116.59357,265.27245 c 24.15845,-8.24812 26.57667,-8.50892 83.34943,-8.98901 l 50.81609,-0.42972 0.535,-49.79353 c 0.55899,-52.02636 0.93993,-56.89804 5.97872,-76.4602 10.81262,-41.978037 39.4255,-80.236693 77.65414,-103.832331 15.63242,-9.64871 37.24094,-18.2778375 54.90242,-21.9246895 7.16166,-1.478782 27.88672,-3.83993304 33.72394,-3.84207803599 L 425.97973,4.640067e-7 425.68664,17.333332 l -0.29309,17.333333 -9.8753,0.694849 c -12.95891,0.911818 -35.01635,5.730481 -37.83354,8.265104 -0.42652,0.383747 21.29348,22.762788 48.26667,49.731195 26.97319,26.968417 49.04217,49.824877 49.04217,50.792137 0,4.83022 -10.26159,30.73384 -13.43033,33.90258 -0.28687,0.28688 -26.86425,-25.8178 -59.06082,-58.01037 L 343.96278,61.510182 341.0161,63.44092 c -4.30197,2.818757 -21.75625,19.859623 -21.75625,21.240943 0,0.64774 26.67755,27.858457 59.28345,60.468257 l 59.28345,59.29053 -6.75012,4.395 c -7.09872,4.62195 -22.16043,11.96433 -24.54292,11.96433 -0.7696,0 -25.20417,-23.80132 -54.29905,-52.89183 l -52.89976,-52.89183 -2.21083,5.15851 c -3.58672,8.36886 -6.42895,17.5023 -7.85505,25.24203 l -1.33507,7.24567 36.72382,36.73539 36.72381,36.73539 h -24.51212 -24.51214 l -13.08207,-13.05066 -13.08207,-13.05066 v 30.65066 30.65066 l 49.33333,-0.0187 c 56.63163,-0.0213 66.28692,-0.97637 85.87646,-8.49399 51.40219,-19.72593 86.90148,-66.80885 90.71747,-120.31908 l 0.7394,-10.36824 17.33333,-0.29309 17.33333,-0.29309 -9e-4,2.42642 c -0.002,5.83722 -2.36329,26.56228 -3.84207,33.72393 -13.05165,63.20839 -63.67088,116.56454 -125.75702,132.55656 -19.56216,5.03879 -24.43385,5.41973 -76.46021,5.97872 l -49.79353,0.535 -0.42972,50.81609 c -0.40323,47.68445 -0.57564,51.47345 -2.79743,61.48276 -7.6055,34.26326 -22.70577,62.34787 -46.33745,86.18185 -28.45863,28.70224 -64.74871,45.9021 -105.14382,49.83341 -5.63081,0.548 -11.55782,1.00874 -13.17116,1.02388 l -2.93333,0.0275 z"
       id="path22" />
  </g>
</svg>
